<?xml version="1.0" encoding="UTF-8" standalone="no"?>
<!-- Created with Inkscape (http://www.inkscape.org/) -->

<svg
   xmlns:dc="http://purl.org/dc/elements/1.1/"
   xmlns:cc="http://creativecommons.org/ns#"
   xmlns:rdf="http://www.w3.org/1999/02/22-rdf-syntax-ns#"
   xmlns:svg="http://www.w3.org/2000/svg"
   xmlns="http://www.w3.org/2000/svg"
   xmlns:sodipodi="http://sodipodi.sourceforge.net/DTD/sodipodi-0.dtd"
   xmlns:inkscape="http://www.inkscape.org/namespaces/inkscape"
   width="800"
   height="800"
   id="svg2"
   version="1.1"
   inkscape:version="0.48.3.1 r9886"
   sodipodi:docname="lazygalaxy_final.svg">
  <defs
     id="defs4" />
  <sodipodi:namedview
     id="base"
     pagecolor="#ffffff"
     bordercolor="#666666"
     borderopacity="1.0"
     inkscape:pageopacity="0.0"
     inkscape:pageshadow="2"
     inkscape:zoom="0.98994949"
     inkscape:cx="402.2203"
     inkscape:cy="411.92564"
     inkscape:document-units="px"
     inkscape:current-layer="layer1"
     showgrid="true"
     inkscape:window-width="1865"
     inkscape:window-height="1056"
     inkscape:window-x="1255"
     inkscape:window-y="728"
     inkscape:window-maximized="1"
     width="750px"
     showborder="true"
     inkscape:showpageshadow="true">
    <sodipodi:guide
       position="0,0"
       orientation="0,744.09448"
       id="guide6617" />
    <sodipodi:guide
       position="744.09448,0"
       orientation="-1052.3622,0"
       id="guide6619" />
    <sodipodi:guide
       position="744.09448,1052.3622"
       orientation="0,-744.09448"
       id="guide6621" />
    <sodipodi:guide
       position="0,1052.3622"
       orientation="1052.3622,0"
       id="guide6623" />
    <inkscape:grid
       type="xygrid"
       id="grid6625"
       empspacing="5"
       visible="true"
       enabled="true"
       snapvisiblegridlinesonly="true" />
  </sodipodi:namedview>
  <metadata
     id="metadata7">
    <rdf:RDF>
      <cc:Work
         rdf:about="">
        <dc:format>image/svg+xml</dc:format>
        <dc:type
           rdf:resource="http://purl.org/dc/dcmitype/StillImage" />
        <dc:title></dc:title>
      </cc:Work>
    </rdf:RDF>
  </metadata>
  <g
     inkscape:label="Layer 1"
     inkscape:groupmode="layer"
     id="layer1"
     transform="translate(0,-252.36211)">
    <rect
       style="fill:#ffffff;fill-opacity:1"
       id="rect4057"
       width="1020"
       height="870"
       x="-140"
       y="-30"
       transform="translate(0,252.36211)"
       ry="2.5" />
    <g
       id="g5274"
       transform="matrix(0.125,0,0,-0.125,-1799.4326,1202.6044)"
       style="fill:#f20000;fill-opacity:1;stroke:none"
       inkscape:transform-center-x="173.74624"
       inkscape:transform-center-y="112.12693" />
    <g
       id="g6580"
       transform="matrix(0.10588409,0,0,-0.1058841,-386.53013,1176.5114)"
       style="fill:#000000;stroke:none">
      <path
         id="path6582"
         d="m 8530,2048 c -51,-244 -95,-451 -98,-460 -4,-16 5,-18 87,-18 50,0 91,2 91,4 0,3 43,206 95,453 52,246 95,451 95,456 0,4 -40,7 -88,7 l -88,0 -94,-442 z"
         inkscape:connector-curvature="0" />
      <path
         id="path6584"
         d="m 3960,2435 c 0,-5 -168,-807 -177,-842 l -5,-23 291,0 291,0 5,23 c 3,12 11,52 19,90 l 14,67 -195,0 c -180,0 -194,1 -189,18 3,9 35,159 71,332 36,173 68,321 70,328 3,9 -20,12 -95,12 -55,0 -100,-2 -100,-5 z"
         inkscape:connector-curvature="0" />
      <path
         id="path6586"
         d="m 7040,2429 c -37,-15 -78,-58 -90,-93 -17,-53 -140,-646 -140,-676 0,-16 11,-41 24,-57 l 24,-28 309,-3 310,-3 48,228 c 26,125 50,238 53,251 l 4,22 -175,0 c -194,0 -178,6 -192,-70 -4,-19 -9,-43 -11,-52 -5,-16 4,-18 80,-18 47,0 86,-2 86,-4 0,-3 -9,-45 -21,-95 l -21,-91 -149,0 c -123,0 -151,3 -155,15 -9,21 94,497 108,507 7,4 119,8 249,8 l 236,0 11,63 c 7,34 15,72 18,85 l 6,22 -293,-1 c -170,0 -305,-4 -319,-10 z"
         inkscape:connector-curvature="0" />
      <path
         id="path6588"
         d="m 4617,2183 c -4,-21 -9,-53 -13,-70 l -6,-33 231,0 c 234,0 234,0 233,-35 0,-5 -15,-79 -33,-162 l -32,-153 -158,0 c -87,0 -160,4 -163,8 -2,4 1,33 7,63 l 12,54 135,5 135,5 6,30 c 4,17 7,40 8,53 l 1,22 -182,0 c -200,0 -220,-5 -250,-56 -20,-34 -59,-208 -60,-268 0,-30 5,-45 22,-58 20,-16 48,-18 325,-18 281,0 304,1 309,18 3,9 31,140 62,289 62,296 63,313 8,333 -14,6 -148,10 -308,10 l -283,0 -6,-37 z"
         inkscape:connector-curvature="0" />
      <path
         id="path6590"
         d="m 5404,2193 c -3,-16 -10,-44 -15,-63 -19,-73 -28,-69 168,-72 l 177,-3 -216,-170 -216,-170 -12,-55 c -6,-30 -14,-63 -16,-72 -5,-17 14,-18 300,-18 l 305,0 11,58 c 6,31 14,67 17,79 l 5,23 -176,2 -177,3 215,179 215,178 12,57 c 6,31 13,59 16,64 2,4 -133,7 -301,7 l -306,0 -6,-27 z"
         inkscape:connector-curvature="0" />
      <path
         id="path6592"
         d="m 6121,2173 c -44,-191 -102,-485 -103,-521 -2,-75 2,-77 248,-80 l 216,-3 -7,-37 c -14,-76 0,-72 -254,-72 l -228,0 -12,-57 c -6,-32 -14,-68 -17,-80 l -6,-23 281,0 c 307,0 331,4 365,55 12,18 53,187 107,443 49,228 89,416 89,418 0,2 -40,4 -89,4 l -89,0 -15,-67 c -9,-38 -33,-150 -54,-250 l -38,-183 -148,0 c -114,0 -149,3 -153,13 -4,11 57,320 91,465 5,22 4,22 -84,22 l -89,0 -11,-47 z"
         inkscape:connector-curvature="0" />
      <path
         id="path6594"
         d="m 7767,2183 c -4,-21 -9,-53 -13,-70 l -6,-33 231,0 c 234,0 234,0 233,-35 0,-5 -15,-79 -33,-162 l -32,-153 -158,0 c -87,0 -160,4 -163,8 -2,4 1,33 7,63 l 12,54 135,5 135,5 6,30 c 4,17 7,40 8,53 l 1,22 -182,0 c -200,0 -220,-5 -250,-56 -20,-34 -59,-208 -60,-268 0,-30 5,-45 22,-58 20,-16 48,-18 325,-18 281,0 304,1 309,18 3,9 31,140 62,289 62,296 63,313 8,333 -14,6 -148,10 -308,10 l -283,0 -6,-37 z"
         inkscape:connector-curvature="0" />
      <path
         id="path6596"
         d="m 8897,2183 c -4,-21 -9,-53 -13,-70 l -6,-33 231,0 c 234,0 234,0 233,-35 0,-5 -15,-79 -33,-162 l -32,-153 -158,0 c -87,0 -160,4 -163,8 -2,4 1,33 7,63 l 12,54 135,5 135,5 6,30 c 4,17 7,40 8,53 l 1,22 -182,0 c -200,0 -220,-5 -250,-56 -20,-34 -59,-208 -60,-268 0,-30 5,-45 22,-58 20,-16 48,-18 325,-18 281,0 304,1 309,18 3,9 31,140 62,289 62,296 63,313 8,333 -14,6 -148,10 -308,10 l -283,0 -6,-37 z"
         inkscape:connector-curvature="0" />
      <path
         id="path6598"
         d="m 9726,2069 c 75,-150 75,-152 56,-173 -10,-11 -78,-87 -150,-168 -73,-81 -132,-149 -132,-152 0,-3 45,-6 99,-6 l 100,0 106,120 c 59,66 110,120 114,120 3,0 30,-54 60,-120 l 54,-120 108,0 109,0 -14,33 c -8,17 -43,93 -79,167 l -64,136 51,55 c 28,30 93,101 145,157 l 93,102 -103,-1 -104,0 -99,-115 c -55,-63 -101,-114 -102,-114 -1,0 -27,52 -58,115 l -55,115 -105,0 -106,0 76,-151 z"
         inkscape:connector-curvature="0" />
      <path
         id="path6600"
         d="m 10441,2173 c -44,-191 -102,-485 -103,-521 -2,-75 2,-77 248,-80 l 216,-3 -7,-37 c -14,-76 0,-72 -254,-72 l -228,0 -12,-57 c -6,-32 -14,-68 -17,-80 l -6,-23 281,0 c 307,0 331,4 365,55 12,18 53,187 107,443 49,228 89,416 89,418 0,2 -40,4 -89,4 l -89,0 -15,-67 c -9,-38 -33,-150 -54,-250 l -38,-183 -148,0 c -114,0 -149,3 -153,13 -4,11 57,320 91,465 5,22 4,22 -84,22 l -89,0 -11,-47 z"
         inkscape:connector-curvature="0" />
    </g>
    <g
       id="g5274-9-5-2-7-5"
       transform="matrix(-0.08868235,0,0,0.09319672,788.74337,372.25001)"
       style="fill:#ffb403;fill-opacity:1;stroke:none"
       inkscape:transform-center-x="-121.39857"
       inkscape:transform-center-y="-83.699809">
      <path
         style="fill:#ffb403;fill-opacity:1"
         d="M 474.5 120 C 467.25624 120.03367 460.61692 120.25277 455.65625 120.71875 C 407.50173 125.47178 362.70605 143.82887 328.03125 172.90625 C 318.27619 181.01436 304.98732 194.90848 296.5625 205.8125 C 275.63347 232.65316 262.76013 260.69586 256.375 293.6875 C 254.33085 316.22055 251.95409 337.42907 256.46875 359.125 C 259.2179 372.63852 263.13176 384.29012 268.71875 396.3125 C 285.5684 432.65922 318.27284 459.78762 353.125 466.125 C 360.04222 467.42975 378.21876 467.77572 384.78125 466.84375 C 404.02532 464.04785 424.16386 452.41148 435.78125 437.5 C 441.45692 430.13746 447.84629 416.6377 449.53125 408.25 C 452.36909 394.36369 450.41554 378.40014 444.5625 366.84375 C 441.45862 360.69277 433.93158 352.69607 427.8125 348.875 C 415.66302 341.41926 398.27533 342.26855 388.875 350.65625 C 378.3218 360.16232 376.81927 377.20494 385.6875 385.40625 C 393.66891 392.67559 406.53125 388.84871 406.53125 379.15625 C 406.53125 373.75084 404.49662 371.34596 400.0625 371.71875 C 398.79829 371.82095 397.9722 371.91115 397.40625 372.125 L 401.96875 372 C 401.98874 371.99985 402.01157 371.99937 402.03125 372 L 402.21875 372 L 402.21875 372.03125 C 402.96955 372.16092 403.53774 372.93947 404.65625 374.65625 C 407.18051 378.50539 406.20447 381.57855 401.75 384.28125 C 393.76268 389.12748 384.18771 379.33614 386.1875 368.4375 C 388.51189 356.26577 403.32718 349.1172 416.4375 353.96875 C 428.04977 358.33024 437.4131 373.71476 437.34375 388.5 C 437.25444 395.97957 434.42319 406.84963 430.90625 412.75 C 424.30942 423.85511 412.14354 433.60834 399.28125 437.96875 C 391.52666 440.6291 377.21763 441.57797 368.3125 440.09375 C 350.21562 436.97638 330.55107 424.49128 318.625 408.375 C 314.57574 402.86839 305.78964 386.13531 303.40625 379.1875 C 291.20265 344.29949 297.19112 300.9459 318.71875 267.4375 C 325.83261 256.34154 333.48841 246.97755 343.25 237.71875 C 358.87176 222.76195 377.50273 214.31237 397.09375 204.90625 C 427.47393 194.2216 457.04175 191.90384 489.625 197.53125 C 502.82315 199.74676 520.90952 204.92588 532.46875 209.75 C 573.76811 226.76921 611.28714 258.33183 639.28125 299.78125 C 647.18599 311.59766 660.04978 335.90911 666.96875 351.90625 C 681.48839 367.84026 700.39888 378.02254 732.0625 377.21875 C 790.66172 380.6224 792.97445 378.01248 770.46875 327.8125 C 762.22129 309.54594 755.22634 296.67502 743.875 278.78125 C 689.24667 192.38789 609.96106 137.13189 519.59375 122.5 C 509.28997 120.83411 490.43628 119.92592 474.5 120 z "
         transform="matrix(-11.276201,0,0,10.729991,8894.0287,-1286.3961)"
         id="path5276-4-7-1-9-7" />
    </g>
    <g
       id="g5274-9-5-2-7"
       transform="matrix(-0.04434117,0.08071073,0.07680117,0.04659836,382.13449,147.11723)"
       style="fill:#1369eb;fill-opacity:1;stroke:none"
       inkscape:transform-center-x="6.5629058"
       inkscape:transform-center-y="-117.06348">
      <path
         style="fill:#1369eb;fill-opacity:1"
         d="M 517.96875 14.0625 C 509.49359 14.018507 500.867 14.339206 490.65625 15.03125 C 392.1474 21.55238 306.96019 66.102959 249.71875 141.03125 C 240.22826 153.45981 222.9895 183.11971 216.28125 198.3125 C 196.12085 244.51494 188.84418 294.46592 195.46875 340.5625 C 197.27292 353.49474 202.07042 372.53672 206.84375 385.65625 C 218.49797 418.12431 235.19245 443.84926 259.1875 466.15625 C 276.73436 479.28318 293.01983 492.07337 313.15625 498.8125 C 325.667 503.06723 337.20541 505.32359 349.90625 506.25 C 388.28353 509.08832 427.00769 492.86313 449.65625 464.3125 C 454.19008 458.66944 463.58052 442.31358 466.09375 435.875 C 473.41175 416.96282 473.88574 392.81009 467.40625 374.78125 C 464.17679 365.93449 456.22587 353.38361 450.15625 347.65625 C 440.13179 338.13035 426.01236 331.92004 413.5625 331.46875 C 406.94168 331.21813 396.58339 334.09149 390.375 337.75 C 378.15617 345.0795 370.16306 361.31331 372.375 374.0625 C 374.93212 388.42011 388.21363 398.31417 399.40625 394.34375 C 409.38745 390.71446 412.67482 377.09623 404.6875 372.25 C 401.74838 370.46672 399.43854 370.14637 397.65625 371.34375 C 397.5079 371.59837 397.39649 371.85798 397.28125 372.125 L 401.96875 372 C 401.98874 371.99985 402.01157 371.99937 402.03125 372 L 402.21875 372 L 402.21875 372.03125 C 402.96955 372.16092 403.53774 372.93947 404.65625 374.65625 C 407.18051 378.50539 406.20447 381.57855 401.75 384.28125 C 401.64346 384.34589 401.54458 384.40928 401.4375 384.46875 C 401.15367 384.77074 400.81043 385.07081 400.4375 385.375 C 397.98771 387.22466 392.38984 387.39629 389.625 385.71875 C 387.16736 384.2276 383.72282 378.90665 383 375.5625 C 381.97634 370.52922 383.38168 363.5345 386.28125 359.375 C 395.51206 345.92797 417.31504 344.08002 430.71875 355.65625 C 445.98627 368.68617 451.76346 390.58788 445.96875 413.4375 C 442.49018 427.0386 431.71273 442.15901 418.78125 451.53125 C 401.53532 464.09691 379.05359 469.26664 356.5625 465.84375 C 341.16173 463.49441 333.56241 460.72693 319.15625 452.09375 C 309.2489 446.08256 304.7463 442.90884 300.375 438.75 C 280.66575 420.0119 268.06812 398.92686 260.84375 372.375 C 250.88956 335.88054 252.81073 299.56971 266.75 260.03125 C 271.20322 247.45197 285.78564 220.92344 294.3125 210.0625 C 318.71094 178.69948 348.57614 155.46897 384.84375 139.59375 C 465.10447 108.40065 525.98125 152.12341 565.84375 75 C 595.82301 25.915678 600.05799 20.232446 544.34375 15.34375 C 534.75537 14.53016 526.44391 14.106493 517.96875 14.0625 z "
         transform="matrix(-5.6381004,9.7654767,9.2924452,5.364995,3132.4949,-3167.0872)"
         id="path5276-4-7-1-9" />
    </g>
    <g
       id="g5274-9-5-2"
       transform="matrix(0.04434117,0.08071073,0.07680117,-0.04659836,-6.6964482,404.6098)"
       style="fill:#d8432e;fill-opacity:1;stroke:none"
       inkscape:transform-center-x="94.147898"
       inkscape:transform-center-y="-85.286313">
      <path
         style="fill:#d8432e;fill-opacity:1"
         d="M 203.5 32.1875 C 196.24076 32.65799 187.94582 43.466995 173.78125 64.90625 C 162.85195 81.545626 155.75765 94.347141 146.6875 113.625 C 102.80698 206.53949 96.905381 306.34607 130.03125 395.90625 C 135.52808 410.75792 151.36536 441.2671 160.53125 454.96875 C 188.52536 496.41816 226.04439 528.01204 267.34375 545.03125 C 278.90298 549.85537 297.0206 555.00324 310.21875 557.21875 C 342.802 562.84615 372.33857 560.5284 402.71875 549.84375 C 422.30977 540.43763 440.97199 532.0193 456.59375 517.0625 C 466.35534 507.80371 474.01114 498.40846 481.125 487.3125 C 502.65263 453.8041 508.6411 410.48176 496.4375 375.59375 C 494.05411 368.64594 485.26801 351.91286 481.21875 346.40625 C 469.29268 330.28997 449.62813 317.77362 431.53125 314.65625 C 422.62612 313.17203 408.28584 314.1209 400.53125 316.78125 C 387.66896 321.14166 375.50308 330.8949 368.90625 342 C 365.38931 347.90037 362.55806 358.77043 362.46875 366.25 C 362.3994 381.03524 371.79398 396.41977 383.40625 400.78125 C 396.51657 405.63279 411.33186 398.48423 413.65625 386.3125 C 415.62533 375.58118 406.34724 365.94886 398.4375 370.28125 C 397.94751 370.83675 397.56645 371.46807 397.28125 372.125 L 401.96875 372 C 401.98874 371.99985 402.01157 371.99937 402.03125 372 L 402.21875 372 L 402.21875 372.03125 C 402.96955 372.16092 403.53774 372.93947 404.65625 374.65625 C 405.56351 376.03969 406.02746 377.33034 406.03125 378.53125 C 406.33936 379.15616 406.60389 379.93214 406.78125 380.90625 C 407.08061 384.06066 404.38984 389.22871 401.625 390.90625 C 399.16736 392.3974 393.08599 392.88923 389.96875 391.875 C 385.30912 390.29 380.22796 385.49993 378.25 380.78125 C 371.78403 365.65668 381.16471 344.91074 397.40625 338.5 C 415.77765 331.11983 436.72379 336.80136 452.65625 353.5 C 462.12531 363.46643 469.1798 380.82606 470.4375 397.28125 C 472.16959 419.25978 465.19127 442.30457 451.125 461.0625 C 441.48859 473.90423 435.41123 479.42415 421.09375 488.21875 C 411.1864 494.22994 406.3316 496.75731 400.71875 498.65625 C 375.42251 507.22479 351.74293 508.13846 326.25 501.4375 C 291.19871 492.24968 262.23805 472.36176 236.625 439.90625 C 228.48533 429.56369 213.90556 403.00336 209.21875 389.8125 C 195.57247 351.92571 191.38608 313.16389 196.4375 272.21875 C 209.82618 186.05023 277.3793 150.29254 233.6875 75.15625 C 219.51099 46.110856 212.26116 31.619667 203.5 32.1875 z "
         transform="matrix(5.6381004,9.7654767,9.2924452,-5.364995,-1376.9981,882.2021)"
         id="path5276-4-7-1" />
    </g>
    <g
       id="g5274-9-5-2-6"
       transform="matrix(0.08868235,0,0,-0.09319672,11.081532,887.23537)"
       style="fill:#009957;fill-opacity:1;stroke:none"
       inkscape:transform-center-x="121.39856"
       inkscape:transform-center-y="83.699804">
      <path
         style="fill:#009957;fill-opacity:1"
         d="M 430.65625 287.90625 C 412.52849 287.71096 395.04356 293.0404 381.03125 303.25 C 368.09978 312.62225 357.35357 327.7114 353.875 341.3125 C 348.0803 364.16212 353.85748 386.09509 369.125 399.125 C 382.52872 410.70123 404.33168 408.85327 413.5625 395.40625 C 416.46205 391.24676 417.83617 384.22079 416.8125 379.1875 C 416.08969 375.84337 412.67638 370.55365 410.21875 369.0625 C 407.45391 367.38497 401.82479 367.52534 399.375 369.375 C 398.39556 370.10176 397.6987 371.07462 397.25 372.125 L 401.9375 372 C 401.97685 371.99922 402.02433 371.99773 402.0625 372 L 402.21875 372 L 402.21875 372.03125 C 402.46036 372.07422 402.6755 372.1851 402.90625 372.375 C 403.83155 372.2289 404.94053 372.34515 406.25 372.90625 C 408.99915 374.211 411.9375 379.23867 411.9375 382.59375 C 411.9375 385.57605 409.26942 391.35758 406.875 393.6875 C 403.23902 397.13578 396.75253 399.37168 391.875 398.8125 C 376.17822 397.13496 363.75591 378.20572 366.59375 360.21875 C 369.69763 339.80867 384.86657 323.58848 406.59375 317.4375 C 419.54137 313.80283 437.37332 316.04205 451.5625 323.125 C 470.54052 332.53787 486.07518 350.44418 494.5 372.625 C 500.26435 387.81607 501.75507 396.10346 501.84375 413.53125 C 501.84375 425.55363 501.49155 431.22346 500.25 437.28125 C 494.66301 464.58789 483.58106 486.5866 465.3125 506.4375 C 440.21539 533.74414 409.36483 550.16705 369.8125 557.25 C 357.21961 559.48672 328.02617 559.48617 314.8125 557.15625 C 276.76777 550.63248 242.71619 535.06992 211.5 510 C 145.73051 454.78313 154.0715 375.37121 67.75 377.5625 C 9.1507838 374.15885 6.8380492 376.73752 29.34375 426.9375 C 37.591209 445.20406 44.617409 458.07498 55.96875 475.96875 C 106.8229 556.39334 179.01845 609.81952 261.65625 628.625 L 261.8125 628.34375 L 273.5625 630.28125 C 322.75136 638.60323 373.68556 633.13486 415 615.15625 C 451.2676 599.28103 481.10156 576.08177 505.5 544.71875 C 514.02686 533.85781 528.60929 507.29802 533.0625 494.71875 C 547.00178 455.18029 548.92294 418.90071 538.96875 382.40625 C 531.74439 355.8544 519.17801 334.76934 499.46875 316.03125 C 495.09745 311.87242 490.56359 308.69868 480.65625 302.6875 C 466.25008 294.05433 458.68202 291.28684 443.28125 288.9375 C 439.06417 288.29571 434.83958 287.95132 430.65625 287.90625 z "
         transform="matrix(11.276201,0,0,-10.729991,-124.95758,6812.1846)"
         id="path5276-4-7-1-3" />
    </g>
    <g
       id="g5274-9-5-2-7-5-2-0"
       transform="matrix(0.04434117,-0.07603316,-0.07680117,-0.04389776,415.00097,1062.6177)"
       style="fill:#ffffff;fill-opacity:1;stroke:none"
       inkscape:transform-center-x="-6.5629239"
       inkscape:transform-center-y="110.27905" />
    <g
       id="g5274-9-5-2-7-5-2"
       transform="matrix(-0.04478906,-0.081526,-0.07757694,0.04706905,810.62857,857.14958)"
       style="fill:#ffffff;fill-opacity:1;stroke:none"
       inkscape:transform-center-x="-95.098896"
       inkscape:transform-center-y="86.147688" />
    <g
       id="g5274-9-5-2-7-5-2-0-6"
       transform="matrix(0.04434117,-0.07603316,-0.07680117,-0.04389776,415.00097,1062.6177)"
       style="fill:#ffffff;fill-opacity:1;stroke:none"
       inkscape:transform-center-x="-6.5629239"
       inkscape:transform-center-y="110.27905" />
    <g
       id="g5274-9-5-2-7-5-2-0-63"
       transform="matrix(0.04434117,-0.07603316,-0.07680117,-0.04389776,415.00097,1062.6177)"
       style="fill:#ffffff;fill-opacity:1;stroke:none"
       inkscape:transform-center-x="-6.5629239"
       inkscape:transform-center-y="110.27905" />
    <g
       id="g5274-9-5-2-7-5-2-0-2"
       transform="matrix(0.04434117,-0.07603316,-0.07680117,-0.04389776,415.00097,1062.6177)"
       style="fill:#ffffff;fill-opacity:1;stroke:none"
       inkscape:transform-center-x="-6.5629239"
       inkscape:transform-center-y="110.27905" />
    <g
       id="g5274-9-5-2-7-5-2-3"
       transform="matrix(-0.04478906,-0.081526,-0.07757694,0.04706905,810.62857,857.14958)"
       style="fill:#ffffff;fill-opacity:1;stroke:none"
       inkscape:transform-center-x="-95.098896"
       inkscape:transform-center-y="86.147688" />
    <g
       id="g5274-9-5-2-7-5-2-38"
       transform="matrix(-0.04478906,-0.081526,-0.07757694,0.04706905,810.62857,857.14958)"
       style="fill:#ffffff;fill-opacity:1;stroke:none"
       inkscape:transform-center-x="-95.098896"
       inkscape:transform-center-y="86.147688" />
    <g
       id="g5274-9-5-2-7-5-2-9"
       transform="matrix(-0.04478906,-0.081526,-0.07757694,0.04706905,810.62857,857.14958)"
       style="fill:#ffffff;fill-opacity:1;stroke:none"
       inkscape:transform-center-x="-95.098896"
       inkscape:transform-center-y="86.147688" />
  </g>
</svg>
